<svg width="615" height="177" viewBox="0 0 615 177" fill="none" xmlns="http://www.w3.org/2000/svg">
<path d="M552.986 88.73C553.087 86.6007 552.834 81.9873 552.226 74.8897L563.48 73.3688L565.153 83.1026C568.195 81.0748 571.186 79.3004 574.127 77.7794C577.168 76.2585 580.261 74.9404 583.404 73.8251C586.547 72.6084 589.589 72 592.53 72C596.687 72 600.134 72.507 602.872 73.5209C605.711 74.4335 607.992 76.0051 609.716 78.2357C611.44 80.4664 612.656 83.4068 613.366 87.057C614.177 90.7072 614.583 95.2699 614.583 100.745V150.023H602.416V102.114C602.416 99.0722 602.365 96.3852 602.263 94.0532C602.162 91.6197 601.706 89.5918 600.895 87.9695C600.185 86.2458 599.019 84.9277 597.397 84.0152C595.876 83.1026 593.696 82.6464 590.857 82.6464C588.22 82.6464 585.432 83.2547 582.492 84.4714C579.551 85.5868 576.662 86.9049 573.822 88.4258C570.983 89.9467 568.094 91.7211 565.153 93.749V150.023H552.986V88.73Z" fill="#FAFAFA"/>
<path d="M519.225 114.89C517.198 114.991 515.271 115.092 513.446 115.194C511.621 115.295 509.796 115.447 507.971 115.65C506.247 115.751 504.675 115.904 503.256 116.106C495.956 117.019 490.784 118.641 487.743 120.973C484.701 123.204 483.18 126.449 483.18 130.707C483.18 134.256 484.245 136.943 486.374 138.768C488.604 140.492 491.494 141.353 495.043 141.353C499.91 141.353 504.219 140.542 507.971 138.92C511.824 137.196 515.575 134.966 519.225 132.228V114.89ZM519.073 142.874C514.308 145.612 509.847 147.843 505.689 149.566C501.634 151.189 497.223 152 492.457 152C485.664 152 480.24 150.377 476.184 147.133C472.229 143.787 470.252 138.312 470.252 130.707C470.252 126.753 471.266 123.305 473.294 120.365C475.322 117.424 477.958 114.991 481.203 113.065C484.549 111.037 488.3 109.465 492.457 108.35C496.615 107.234 500.873 106.525 505.233 106.22C507.058 106.018 509.441 105.866 512.381 105.764C515.322 105.561 517.603 105.409 519.225 105.308C519.225 101.759 519.124 98.6159 518.921 95.8783C518.718 93.0392 518.11 90.6565 517.096 88.73C516.082 86.7021 514.561 85.1812 512.533 84.1673C510.607 83.1533 507.819 82.6464 504.168 82.6464C501.228 82.6464 498.389 82.8491 495.651 83.2547C492.914 83.5589 490.48 83.9138 488.351 84.3194C485.816 84.8263 483.484 85.384 481.355 85.9924L478.921 75.4981C481.456 74.8897 484.194 74.3321 487.134 73.8251C489.669 73.3181 492.61 72.9125 495.956 72.6084C499.302 72.2028 502.901 72 506.754 72C511.925 72 516.082 72.7605 519.225 74.2814C522.47 75.8023 524.954 77.8808 526.678 80.5171C528.503 83.0519 529.72 85.9924 530.328 89.3384C531.038 92.583 531.393 96.0304 531.393 99.6805V136.182C531.393 137.602 531.393 139.123 531.393 140.745C531.494 142.266 531.595 143.787 531.697 145.308C531.9 146.829 532.102 148.4 532.305 150.023L520.594 151.239L519.073 142.874Z" fill="#FAFAFA"/>
<path d="M350.991 87.3612C350.991 83.9138 350.686 79.7566 350.078 74.8897L361.485 73.3688L363.158 82.9505C365.896 80.9227 368.582 79.1483 371.219 77.6274C373.855 76.1065 376.694 74.7883 379.736 73.673C382.778 72.5577 385.87 72 389.013 72C394.083 72 398.088 72.9125 401.029 74.7376C403.969 76.4613 406.149 79.4524 407.568 83.711C411.726 80.7706 416.035 78.0836 420.496 75.6502C425.059 73.2167 429.774 72 434.641 72C438.392 72 441.586 72.507 444.222 73.5209C446.859 74.4335 448.988 76.0051 450.61 78.2357C452.232 80.4664 453.398 83.4068 454.108 87.057C454.818 90.7072 455.173 95.2699 455.173 100.745V150.023H443.006V102.114C443.006 99.0722 442.955 96.3852 442.854 94.0532C442.752 91.6197 442.397 89.5918 441.789 87.9695C441.181 86.2458 440.167 84.9277 438.747 84.0152C437.429 83.1026 435.502 82.6464 432.968 82.6464C430.636 82.6464 428.405 83.0012 426.276 83.711C424.248 84.3194 422.118 85.2319 419.888 86.4486C417.657 87.6653 414.21 90.1495 409.546 93.9011V150.023H397.378V102.114C397.378 99.0722 397.328 96.3852 397.226 94.0532C397.125 91.6197 396.77 89.5918 396.162 87.9695C395.553 86.2458 394.539 84.9277 393.12 84.0152C391.802 83.1026 389.875 82.6464 387.34 82.6464C384.704 82.6464 381.967 83.204 379.127 84.3194C376.288 85.4347 373.601 86.7528 371.067 88.2737C368.532 89.7946 365.896 91.569 363.158 93.5969V150.023H350.991V87.3612Z" fill="#FAFAFA"/>
<path d="M316.562 141.658H316.258C315.345 142.367 314.027 143.331 312.303 144.547C310.58 145.663 308.603 146.778 306.372 147.893C304.141 149.009 301.657 149.972 298.919 150.783C296.283 151.594 293.596 152 290.859 152C287.107 152 283.913 151.493 281.277 150.479C278.641 149.566 276.511 147.995 274.889 145.764C273.267 143.533 272.101 140.593 271.391 136.943C270.681 133.293 270.326 128.73 270.326 123.255V73.521H282.494V121.43C282.494 124.471 282.544 127.209 282.646 129.643C282.747 132.076 283.102 134.155 283.71 135.878C284.319 137.602 285.282 138.971 286.6 139.985C288.02 140.897 289.997 141.354 292.532 141.354C295.168 141.354 297.906 140.796 300.745 139.681C303.584 138.565 306.169 137.298 308.501 135.878C311.239 134.256 313.926 132.431 316.562 130.403V73.521H328.729V140.137C328.831 143.787 329.084 147.082 329.49 150.023L317.475 151.239L316.562 141.658Z" fill="#FAFAFA"/>
<path d="M187.76 88.73C187.862 86.6007 187.608 81.9873 187 74.8897L198.255 73.3688L199.928 83.1026C202.97 81.0748 205.961 79.3004 208.901 77.7794C211.943 76.2585 215.035 74.9404 218.179 73.8251C221.322 72.6084 224.364 72 227.304 72C231.461 72 234.909 72.507 237.646 73.5209C240.485 74.4335 242.767 76.0051 244.49 78.2357C246.214 80.4664 247.431 83.4068 248.141 87.057C248.952 90.7072 249.357 95.2699 249.357 100.745V150.023H237.19V102.114C237.19 99.0722 237.139 96.3852 237.038 94.0532C236.937 91.6197 236.48 89.5918 235.669 87.9695C234.959 86.2458 233.793 84.9277 232.171 84.0152C230.65 83.1026 228.47 82.6464 225.631 82.6464C222.995 82.6464 220.207 83.2547 217.266 84.4714C214.326 85.5868 211.436 86.9049 208.597 88.4258C205.758 89.9467 202.868 91.7211 199.928 93.749V150.023H187.76V88.73Z" fill="#FAFAFA"/>
<g clip-path="url(#clip0_3577_56)">
<path d="M146.17 7.18988V100.66H102.1V146.17H7.18988V142.36H3.37988V7.18988H7.18988V3.37988H142.37V7.18988H146.17Z" fill="#73BF9E"/>
<path d="M0 140.92V149.55H8.63V140.92H0ZM7.19 148.11H1.44V142.36H7.19V148.11Z" fill="#D9D9D9"/>
<path d="M140.93 0V8.63H149.55V0H140.93ZM148.12 7.19H142.37V1.44H148.12V7.19Z" fill="#D9D9D9"/>
<path d="M11.7199 10.65C11.9199 10.91 11.9199 11.29 11.6899 11.56C11.4599 11.82 11.0899 11.88 10.7899 11.72L10.6699 11.64L9.58993 10.71C9.28993 10.45 9.25993 10 9.51993 9.70004C9.77993 9.40004 10.2299 9.37004 10.5299 9.63004L11.6099 10.56L11.7099 10.67L11.7199 10.65ZM15.9299 14.26C16.2299 14.52 16.2599 14.97 15.9999 15.27C15.7399 15.57 15.2899 15.6 14.9899 15.34L12.8299 13.48C12.5299 13.22 12.4999 12.77 12.7599 12.47C13.0199 12.17 13.4699 12.14 13.7699 12.4L15.9299 14.26ZM20.2399 17.98C20.5399 18.24 20.5699 18.69 20.3099 18.99C20.0499 19.29 19.5999 19.32 19.2999 19.06L17.1399 17.2C16.8399 16.94 16.8099 16.49 17.0699 16.19C17.3299 15.89 17.7799 15.86 18.0799 16.12L20.2399 17.98ZM24.5599 21.7C24.8599 21.96 24.8899 22.41 24.6299 22.71C24.3699 23.01 23.9199 23.04 23.6199 22.78L21.4599 20.92L21.3599 20.81C21.1599 20.55 21.1599 20.17 21.3899 19.9C21.6499 19.6 22.0999 19.57 22.3999 19.83L24.5599 21.69V21.7ZM28.8699 25.42C29.1699 25.68 29.1999 26.13 28.9399 26.43C28.6799 26.73 28.2299 26.76 27.9299 26.5L25.7699 24.64C25.4699 24.38 25.4399 23.93 25.6999 23.63C25.9599 23.33 26.4099 23.3 26.7099 23.56L28.8699 25.42ZM32.2099 28.32C32.4099 28.58 32.4099 28.96 32.1799 29.23C31.9499 29.49 31.5799 29.55 31.2799 29.39L31.1599 29.31L30.0799 28.38C29.7799 28.12 29.7499 27.67 30.0099 27.37C30.2699 27.07 30.7199 27.04 31.0199 27.3L32.0999 28.23L32.1999 28.34L32.2099 28.32Z" fill="#6969B0"/>
<path d="M11.7199 151.35C11.9199 151.61 11.9199 152 11.6899 152.26C11.4599 152.52 11.0899 152.58 10.7899 152.42L10.6699 152.34L9.58993 151.41C9.28993 151.15 9.25993 150.7 9.51993 150.4C9.77993 150.1 10.2299 150.07 10.5299 150.33L11.6099 151.26L11.7099 151.37L11.7199 151.35ZM15.9299 154.96C16.2299 155.22 16.2599 155.67 15.9999 155.97C15.7399 156.27 15.2899 156.3 14.9899 156.04L12.8299 154.18C12.5299 153.92 12.4999 153.47 12.7599 153.16C13.0199 152.86 13.4699 152.83 13.7699 153.09L15.9299 154.95V154.96ZM20.2399 158.68C20.5399 158.94 20.5699 159.39 20.3099 159.69C20.0499 159.99 19.5999 160.02 19.2999 159.76L17.1399 157.9C16.8399 157.64 16.8099 157.19 17.0699 156.89C17.3299 156.59 17.7799 156.56 18.0799 156.82L20.2399 158.68ZM24.5599 162.41C24.8599 162.67 24.8899 163.12 24.6299 163.42C24.3699 163.72 23.9199 163.75 23.6199 163.49L21.4599 161.63L21.3599 161.53C21.1599 161.27 21.1599 160.88 21.3899 160.62C21.6499 160.32 22.0999 160.29 22.3999 160.55L24.5599 162.41ZM28.8699 166.13C29.1699 166.39 29.1999 166.84 28.9399 167.14C28.6799 167.44 28.2299 167.47 27.9299 167.21L25.7699 165.35C25.4699 165.09 25.4399 164.64 25.6999 164.34C25.9599 164.04 26.4099 164.01 26.7099 164.27L28.8699 166.13ZM32.2099 169.02C32.4099 169.28 32.4099 169.67 32.1799 169.93C31.9499 170.19 31.5799 170.25 31.2799 170.09L31.1599 170.01L30.0799 169.08C29.7799 168.82 29.7499 168.37 30.0099 168.07C30.2699 167.77 30.7199 167.74 31.0199 168L32.0999 168.93L32.1999 169.04L32.2099 169.02Z" fill="#6969B0"/>
<path d="M165.87 23.2C166.16 23.47 166.17 23.93 165.9 24.22C165.63 24.51 165.17 24.52 164.89 24.25L163.69 23.11L163.59 23C163.4 22.73 163.42 22.35 163.66 22.09C163.93 21.8 164.39 21.79 164.68 22.06L165.88 23.2H165.87ZM162.27 19.79L162.36 19.9C162.55 20.17 162.53 20.55 162.29 20.81C162.05 21.06 161.67 21.1 161.39 20.92L161.27 20.83L158.87 18.55L158.77 18.44C158.58 18.17 158.6 17.79 158.84 17.53C159.11 17.24 159.57 17.23 159.86 17.5L162.26 19.78L162.27 19.79ZM157.48 15.24L157.58 15.35C157.77 15.62 157.75 16 157.51 16.26C157.27 16.51 156.89 16.55 156.61 16.38L156.49 16.29L154.1 14.01L154 13.9C153.81 13.63 153.83 13.25 154.07 12.99C154.34 12.7 154.8 12.69 155.09 12.96L157.49 15.24H157.48ZM152.68 10.68L152.78 10.79C152.97 11.06 152.95 11.44 152.71 11.7C152.47 11.95 152.09 11.99 151.81 11.82L151.69 11.73L150.49 10.59L150.39 10.48C150.2 10.21 150.22 9.82999 150.46 9.56999C150.73 9.27999 151.19 9.26999 151.48 9.53999L152.68 10.68Z" fill="#6969B0"/>
<path d="M0 0V8.63H8.63V0H0ZM7.19 7.19H1.44V1.44H7.19V7.19Z" fill="#D9D9D9"/>
<path d="M163.93 25.8799H40.27C34.71 25.8799 30.2 30.3899 30.2 35.9499V166.8C30.2 172.36 34.71 176.87 40.27 176.87H102.1V116.89C102.1 110.72 103.2 107.12 105.81 104.39C108.39 101.7 111.94 100.65 117.66 100.65H174V35.9499C174 30.3899 169.49 25.8799 163.93 25.8799Z" fill="#86DEBB"/>
<path d="M62.9199 104.51C62.9199 120.82 66.5 133.02 73.65 141.09C80.97 148.99 90.79 152.95 103.11 152.95C115.43 152.95 124.74 149 131.57 141.09C138.39 133.19 141.8 121.33 141.8 105.52C141.8 88.6999 138.14 76.1699 130.82 67.9299C123.66 59.6899 113.85 55.5699 101.36 55.5699C88.87 55.5699 79.31 59.6899 72.65 67.9299C66.16 75.9999 62.91 88.1899 62.91 104.51H62.9199ZM41.7 104.26C41.7 91.4799 43.6999 80.8799 47.6899 72.4699C51.6799 63.8899 56.7599 57.0799 62.9199 52.0399C69.0799 46.8299 75.65 43.2099 82.6399 41.1899C89.7999 38.9999 96.54 37.9099 102.86 37.9099C108.85 37.9099 115.34 38.9199 122.33 40.9399C129.48 42.7899 136.06 46.2399 142.05 51.2799C148.04 56.1599 153.03 62.7999 157.03 71.2099C161.02 79.4499 163.02 89.9599 163.02 102.74C163.02 115.52 160.94 127.04 156.78 135.79C152.79 144.53 147.71 151.52 141.55 156.73C135.39 161.77 128.74 165.31 121.58 167.33C114.42 169.52 107.77 170.61 101.61 170.61C95.45 170.61 88.6299 169.6 81.6399 167.58C74.65 165.56 68.1599 162.11 62.1699 157.24C56.3499 152.19 51.4399 145.38 47.4399 136.81C43.6099 128.23 41.7 117.39 41.7 104.27V104.26Z" fill="#264460"/>
<path d="M103.11 152.94C115.26 152.94 124.74 148.99 131.57 141.08C138.39 133.18 141.81 121.32 141.81 105.51C141.81 103.88 141.77 102.29 141.71 100.74H163.01C163.02 101.4 163.03 102.06 163.03 102.73C163.03 116.02 160.95 127.03 156.79 135.78C152.8 144.53 147.72 151.51 141.56 156.72C135.4 161.76 128.75 165.3 121.59 167.32C114.63 169.45 108.14 170.54 102.12 170.6V152.94H103.12H103.11Z" fill="#B1B1B1"/>
</g>
<defs>
<clipPath id="clip0_3577_56">
<rect width="174" height="176.87" fill="white"/>
</clipPath>
</defs>
</svg>
