<?xml version="1.0" encoding="UTF-8"?>
<svg id="Layer_2" data-name="Layer 2" xmlns="http://www.w3.org/2000/svg" viewBox="0 0 174 176.87">
  <defs>
    <style>
      .cls-1 {
        fill: #86debb;
      }

      .cls-2 {
        fill: #b1b1b1;
      }

      .cls-3 {
        fill: #6969b0;
      }

      .cls-4 {
        fill: #73bf9e;
      }

      .cls-5 {
        fill: #264460;
      }

      .cls-6 {
        fill: #d9d9d9;
      }
    </style>
  </defs>
  <g id="Layer_1-2" data-name="Layer 1">
    <g>
      <polygon class="cls-4" points="146.17 7.19 146.17 100.66 102.1 100.66 102.1 146.17 7.19 146.17 7.19 142.36 3.38 142.36 3.38 7.19 7.19 7.19 7.19 3.38 142.37 3.38 142.37 7.19 146.17 7.19"/>
      <path class="cls-6" d="M0,140.92v8.63h8.63v-8.63H0ZM7.19,148.11H1.44v-5.75h5.75v5.75Z"/>
      <path class="cls-6" d="M140.93,0v8.63h8.62V0h-8.62ZM148.12,7.19h-5.75V1.44h5.75v5.75Z"/>
      <path class="cls-3" d="M11.72,10.65c.2.26.2.64-.03.91-.23.26-.6.32-.9.16l-.12-.08-1.08-.93c-.3-.26-.33-.71-.07-1.01.26-.3.71-.33,1.01-.07l1.08.93.1.11ZM15.93,14.26c.3.26.33.71.07,1.01-.26.3-.71.33-1.01.07l-2.16-1.86c-.3-.26-.33-.71-.07-1.01.26-.3.71-.33,1.01-.07l2.16,1.86ZM20.24,17.98c.3.26.33.71.07,1.01-.26.3-.71.33-1.01.07l-2.16-1.86c-.3-.26-.33-.71-.07-1.01.26-.3.71-.33,1.01-.07l2.16,1.86ZM24.56,21.7c.3.26.33.71.07,1.01-.26.3-.71.33-1.01.07l-2.16-1.86-.1-.11c-.2-.26-.2-.64.03-.91.26-.3.71-.33,1.01-.07l2.16,1.86ZM28.87,25.42c.3.26.33.71.07,1.01-.26.3-.71.33-1.01.07l-2.16-1.86c-.3-.26-.33-.71-.07-1.01.26-.3.71-.33,1.01-.07l2.16,1.86ZM32.21,28.32c.2.26.2.64-.03.91-.23.26-.6.32-.9.16l-.12-.08-1.08-.93c-.3-.26-.33-.71-.07-1.01.26-.3.71-.33,1.01-.07l1.08.93.1.11Z"/>
      <path class="cls-3" d="M11.72,151.35c.2.26.2.65-.03.91-.23.26-.6.32-.9.16l-.12-.08-1.08-.93c-.3-.26-.33-.71-.07-1.01.26-.3.71-.33,1.01-.07l1.08.93.1.11ZM15.93,154.96c.3.26.33.71.07,1.01-.26.3-.71.33-1.01.07l-2.16-1.86c-.3-.26-.33-.71-.07-1.02.26-.3.71-.33,1.01-.07l2.16,1.86ZM20.24,158.68c.3.26.33.71.07,1.01-.26.3-.71.33-1.01.07l-2.16-1.86c-.3-.26-.33-.71-.07-1.01.26-.3.71-.33,1.01-.07l2.16,1.86ZM24.56,162.41c.3.26.33.71.07,1.01-.26.3-.71.33-1.01.07l-2.16-1.86-.1-.1c-.2-.26-.2-.65.03-.91.26-.3.71-.33,1.01-.07l2.16,1.86ZM28.87,166.13c.3.26.33.71.07,1.01-.26.3-.71.33-1.01.07l-2.16-1.86c-.3-.26-.33-.71-.07-1.01.26-.3.71-.33,1.01-.07l2.16,1.86ZM32.21,169.02c.2.26.2.65-.03.91-.23.26-.6.32-.9.16l-.12-.08-1.08-.93c-.3-.26-.33-.71-.07-1.01.26-.3.71-.33,1.01-.07l1.08.93.1.11Z"/>
      <path class="cls-3" d="M165.87,23.2c.29.27.3.73.03,1.02-.27.29-.73.3-1.01.03l-1.2-1.14-.1-.11c-.19-.27-.17-.65.07-.91.27-.29.73-.3,1.02-.03l1.2,1.14ZM162.27,19.79l.09.11c.19.27.17.65-.07.91-.24.25-.62.29-.9.11l-.12-.09-2.4-2.28-.1-.11c-.19-.27-.17-.65.07-.91.27-.29.73-.3,1.02-.03l2.4,2.28ZM157.48,15.24l.1.11c.19.27.17.65-.07.91-.24.25-.62.29-.9.12l-.12-.09-2.39-2.28-.1-.11c-.19-.27-.17-.65.07-.91.27-.29.73-.3,1.02-.03l2.4,2.28ZM152.68,10.68l.1.11c.19.27.17.65-.07.91-.24.25-.62.29-.9.12l-.12-.09-1.2-1.14-.1-.11c-.19-.27-.17-.65.07-.91.27-.29.73-.3,1.02-.03l1.2,1.14Z"/>
      <path class="cls-6" d="M0,0v8.63h8.63V0H0ZM7.19,7.19H1.44V1.44h5.75v5.75Z"/>
      <path class="cls-1" d="M163.93,25.88H40.27c-5.56,0-10.07,4.51-10.07,10.07v130.85c0,5.56,4.51,10.07,10.07,10.07h61.83v-59.98c0-6.17,1.1-9.77,3.71-12.5,2.58-2.69,6.13-3.74,11.85-3.74h56.34V35.95c0-5.56-4.51-10.07-10.07-10.07Z"/>
      <path class="cls-5" d="M62.92,104.51c0,16.31,3.58,28.51,10.73,36.58,7.32,7.9,17.14,11.86,29.46,11.86s21.63-3.95,28.46-11.86c6.82-7.9,10.23-19.76,10.23-35.57,0-16.82-3.66-29.35-10.98-37.59-7.16-8.24-16.97-12.36-29.46-12.36s-22.05,4.12-28.71,12.36c-6.49,8.07-9.74,20.26-9.74,36.58ZM41.7,104.26c0-12.78,2-23.38,5.99-31.79,3.99-8.58,9.07-15.39,15.23-20.43,6.16-5.21,12.73-8.83,19.72-10.85,7.16-2.19,13.9-3.28,20.22-3.28,5.99,0,12.48,1.01,19.47,3.03,7.15,1.85,13.73,5.3,19.72,10.34,5.99,4.88,10.98,11.52,14.98,19.93,3.99,8.24,5.99,18.75,5.99,31.53s-2.08,24.3-6.24,33.05c-3.99,8.74-9.07,15.73-15.23,20.94-6.16,5.04-12.81,8.58-19.97,10.6-7.16,2.19-13.81,3.28-19.97,3.28s-12.98-1.01-19.97-3.03c-6.99-2.02-13.48-5.47-19.47-10.34-5.82-5.05-10.73-11.86-14.73-20.43-3.83-8.58-5.74-19.42-5.74-32.54Z"/>
      <path class="cls-2" d="M103.11,152.94c12.15,0,21.63-3.95,28.46-11.86,6.82-7.9,10.24-19.76,10.24-35.57,0-1.63-.04-3.22-.1-4.77h21.3c.01.66.02,1.32.02,1.99,0,13.29-2.08,24.3-6.24,33.05-3.99,8.75-9.07,15.73-15.23,20.94-6.16,5.04-12.81,8.58-19.97,10.6-6.96,2.13-13.45,3.22-19.47,3.28v-17.66h1Z"/>
    </g>
  </g>
</svg>